<svg width="20" height="23" viewBox="0 0 20 23" fill="none" xmlns="http://www.w3.org/2000/svg">
<path d="M16.7287 4.57248H15.1515C14.9824 3.32169 14.3698 2.17274 13.4247 1.33389C12.4796 0.495042 11.2647 0.0218199 10 0C8.73533 0.0218199 7.52035 0.495042 6.57529 1.33389C5.63022 2.17274 5.01762 3.32169 4.84853 4.57248H3.27202C2.40462 4.57306 1.57289 4.91706 0.959423 5.52896C0.345959 6.14087 0.000900628 6.97068 0 7.83621V19.7355C0.000777255 20.6009 0.345602 21.4307 0.958803 22.0427C1.572 22.6547 2.40349 22.999 3.27079 23H16.7283C17.5957 22.9993 18.4275 22.6551 19.0409 22.043C19.6543 21.431 19.9992 20.6011 20 19.7355V7.83621C19.9991 6.97081 19.6541 6.14112 19.0408 5.52924C18.4276 4.91735 17.596 4.57326 16.7287 4.57248ZM10 1.69587C10.8152 1.71355 11.5999 2.00828 12.2244 2.53134C12.8489 3.0544 13.2759 3.77446 13.4346 4.57248H6.56538C6.72415 3.77446 7.15108 3.0544 7.77561 2.53134C8.40013 2.00828 9.18484 1.71355 10 1.69587ZM18.2998 19.7355C18.2994 20.1513 18.1337 20.5499 17.8392 20.8439C17.5446 21.138 17.1452 21.3035 16.7286 21.3041H3.27125C2.85462 21.3034 2.45527 21.1379 2.16076 20.8439C1.86624 20.5498 1.7006 20.1512 1.70015 19.7355V7.83621C1.70065 7.42054 1.86635 7.02203 2.16091 6.72811C2.45547 6.43418 2.85484 6.26884 3.27141 6.26835H16.7289C17.1454 6.26892 17.5447 6.4343 17.8392 6.72822C18.1337 7.02213 18.2994 7.42059 18.2998 7.83621V19.7355Z" fill="#323232"/>
</svg>
