<svg width="38" height="38" viewBox="0 0 38 38" fill="none" xmlns="http://www.w3.org/2000/svg">
<path d="M4.75 8.82143C4.75 7.74162 5.08363 6.70603 5.6775 5.94249C6.27136 5.17895 7.07681 4.75 7.91667 4.75H30.0833C30.9232 4.75 31.7286 5.17895 32.3225 5.94249C32.9164 6.70603 33.25 7.74162 33.25 8.82143V29.1786C33.25 30.2584 32.9164 31.294 32.3225 32.0575C31.7286 32.821 30.9232 33.25 30.0833 33.25H7.91667C7.07681 33.25 6.27136 32.821 5.6775 32.0575C5.08363 31.294 4.75 30.2584 4.75 29.1786V8.82143Z" stroke="#1D1D1F" stroke-width="2" stroke-linecap="round" stroke-linejoin="round"/>
<path d="M8.70801 13.4585V8.7085H13.458" stroke="#1D1D1F" stroke-width="2" stroke-linecap="round" stroke-linejoin="round"/>
<path d="M29.292 24.5415V29.2915H24.542" stroke="#1D1D1F" stroke-width="2" stroke-linecap="round" stroke-linejoin="round"/>
</svg>
