<svg width="38" height="38" viewBox="0 0 38 38" fill="none" xmlns="http://www.w3.org/2000/svg">
<path d="M19 23.75C19 25.0098 19.5004 26.218 20.3912 27.1088C21.282 27.9996 22.4902 28.5 23.75 28.5C25.0098 28.5 26.218 27.9996 27.1088 27.1088C27.9996 26.218 28.5 25.0098 28.5 23.75C28.5 22.4902 27.9996 21.282 27.1088 20.3912C26.218 19.5004 25.0098 19 23.75 19C22.4902 19 21.282 19.5004 20.3912 20.3912C19.5004 21.282 19 22.4902 19 23.75Z" stroke="#1D1D1F" stroke-width="2" stroke-linecap="round" stroke-linejoin="round"/>
<path d="M20.583 27.7085V34.8335L23.7497 32.4585L26.9163 34.8335V27.7085" stroke="#1D1D1F" stroke-width="2" stroke-linecap="round" stroke-linejoin="round"/>
<path d="M15.8333 30.0832H7.91667C7.07681 30.0832 6.27136 29.7495 5.6775 29.1557C5.08363 28.5618 4.75 27.7564 4.75 26.9165V11.0832C4.75 9.3415 6.175 7.9165 7.91667 7.9165H30.0833C30.9232 7.9165 31.7286 8.25013 32.3225 8.844C32.9164 9.43786 33.25 10.2433 33.25 11.0832V26.9165C33.2494 27.4718 33.1028 28.0172 32.8249 28.498C32.547 28.9788 32.1476 29.378 31.6667 29.6557" stroke="#1D1D1F" stroke-width="2" stroke-linecap="round" stroke-linejoin="round"/>
<path d="M9.5 14.25H28.5" stroke="#1D1D1F" stroke-width="2" stroke-linecap="round" stroke-linejoin="round"/>
<path d="M9.5 19H14.25" stroke="#1D1D1F" stroke-width="2" stroke-linecap="round" stroke-linejoin="round"/>
<path d="M9.5 23.75H12.6667" stroke="#1D1D1F" stroke-width="2" stroke-linecap="round" stroke-linejoin="round"/>
</svg>
