<svg width="122" height="14" viewBox="0 0 122 14" fill="none" xmlns="http://www.w3.org/2000/svg">
<path fill-rule="evenodd" clip-rule="evenodd" d="M94.8563 4.93743H91.7899V1.77904H94.8563C95.7315 1.77904 96.4356 2.4831 96.4356 3.35824C96.4356 4.23337 95.7315 4.93743 94.8563 4.93743ZM91.7899 6.57585H93.7311L98.9098 13.702H100.871L95.6328 6.48373C97.0213 6.12183 98.0741 4.86505 98.0741 3.35824C98.0741 1.60138 96.6133 0.140625 94.8563 0.140625H90.1514V13.702H91.7899V6.57585Z" fill="#323232"/>
<path fill-rule="evenodd" clip-rule="evenodd" d="M107.332 2.59496L110.096 9.76056L111.603 13.702H113.445L108.207 0.140625H106.437L101.219 13.702H103.048L105.22 8.08266L107.332 2.59496Z" fill="#323232"/>
<path fill-rule="evenodd" clip-rule="evenodd" d="M113.123 0.140625V1.81852H116.703V13.702H118.42V1.81852H122V0.140625H113.123Z" fill="#323232"/>
<path fill-rule="evenodd" clip-rule="evenodd" d="M88.8748 13.702L83.6368 0.140625H81.8667L76.6484 13.702H78.4778L82.7616 2.59496L87.0323 13.702H88.8748Z" fill="#323232"/>
<path fill-rule="evenodd" clip-rule="evenodd" d="M63.7171 1.79911C62.6116 0.884495 61.3548 0.292297 60.1176 0.0883174C58.3541 -0.207782 56.4063 0.292297 55.3008 1.76621C54.8994 2.35841 54.6757 3.02299 54.6757 3.72705C54.6757 4.98383 55.2877 6.0103 56.4261 6.7012C57.2815 7.1947 59.4135 7.63556 59.5517 7.6553C61.0389 7.93824 62.559 8.45806 62.559 9.88591C62.559 11.0506 61.7035 11.6164 61.2034 11.8467C60.4598 12.1889 59.5254 12.2679 58.5778 12.0573C57.4526 11.827 56.3274 11.2414 55.3206 10.3597L54.1953 11.6362C55.4324 12.7021 56.8209 13.4062 58.2357 13.6957C58.6897 13.7878 59.1503 13.8471 59.6044 13.8471C60.4401 13.8471 61.1837 13.7352 61.9075 13.3733C62.5919 13.0311 63.2038 12.5903 63.6052 12.0244C64.0461 11.3927 64.2501 10.6689 64.2501 9.89249C64.2501 8.5765 63.6052 7.51054 62.3615 6.82622C61.4666 6.31298 59.9597 6.06294 59.2359 5.89186C57.4855 5.51022 56.38 5.01673 56.38 3.72047C56.38 3.03615 56.8406 2.36499 57.6171 2.00309C58.7621 1.47011 60.6638 1.50959 62.6248 3.12827L63.7105 1.81227L63.7171 1.79911Z" fill="#323232"/>
<path fill-rule="evenodd" clip-rule="evenodd" d="M53.2222 13.702L47.9842 0.140625H46.2075L40.9893 13.702H42.8186L44.3255 9.76056L44.9901 8.08266L47.1024 2.59496L49.2016 8.08266L49.8662 9.76056L51.3731 13.702H53.2222Z" fill="#323232"/>
<path fill-rule="evenodd" clip-rule="evenodd" d="M34.0793 4.61501L38.8172 0.140625H36.3824L29.8481 6.29291V0.140625H28.1504V13.702H29.8481V8.57616L32.783 5.81915L38.4026 13.702H40.5544L34.0793 4.61501Z" fill="#323232"/>
<path fill-rule="evenodd" clip-rule="evenodd" d="M25.3939 8.7275V0.140625H23.6764V8.7275C23.6764 10.6489 22.1366 12.2346 20.2086 12.2346C18.2805 12.2346 16.7407 10.6554 16.7407 8.7275V0.140625H15.043V8.7275C15.043 11.5832 17.3658 13.8862 20.202 13.8862C23.0381 13.8862 25.3807 11.5832 25.3807 8.7275" fill="#323232"/>
<path fill-rule="evenodd" clip-rule="evenodd" d="M12.0223 13.702V0.140625H10.2127L6.00129 5.93101L1.78986 0.140625H0V13.702H1.69773V2.88448L6.00129 8.78672L10.3246 2.88448V13.702H12.0223Z" fill="#323232"/>
<path fill-rule="evenodd" clip-rule="evenodd" d="M74.0754 3.10827L75.1612 1.79228C74.0557 0.877659 72.7988 0.285461 71.5617 0.0814815C69.7982 -0.214618 67.8504 0.285461 66.7449 1.75938C66.3435 2.35158 66.1132 3.01615 66.1132 3.72021C66.1132 4.97699 66.7252 6.00347 67.8636 6.69437C68.719 7.18786 70.851 7.62872 70.9892 7.64846C72.4764 7.9314 73.9965 8.45122 73.9965 9.87908C73.9965 11.0437 73.141 11.6096 72.6409 11.8399C71.8973 12.1821 70.9629 12.261 70.0153 12.0505C68.8901 11.8202 67.7649 11.2346 66.7581 10.3528L65.6328 11.6294C66.8699 12.6953 68.2584 13.3994 69.6732 13.6889C70.1272 13.781 70.5878 13.8402 71.0419 13.8402C71.8776 13.8402 72.6212 13.7284 73.345 13.3665C74.0294 13.0243 74.6413 12.5834 75.0427 12.0176C75.4836 11.3859 75.6876 10.6621 75.6876 9.88566C75.6876 8.56966 75.0427 7.5037 73.7991 6.81938C72.9041 6.30615 71.3972 6.05611 70.6734 5.88503C68.923 5.50339 67.8175 5.00989 67.8175 3.71363C67.8175 3.02931 68.2715 2.35816 69.0546 1.99626C70.1996 1.46328 72.1013 1.50276 74.0623 3.12143" fill="#323232"/>
</svg>
